# File created by Blade
# Date/Time:  Wed Jan 21 19:13:57 2015
# Frame Rate: 120.000 fps
#------------------------------------------------------
:FULLY-SPECIFIED
:DEGREES
1050
root -1.667885 32.800680 -2.953488 46.035292 3.521015 0.556848
RightUpLeg -38.228231 -5.437859 6.101079
RightLeg -1.568262 -0.000000 0.000000
RightFoot -6.976390 5.511584 19.861812
RightToeBase 18.012020 -0.000000 -0.000000
LeftUpLeg -41.692024 5.160096 -4.671425
LeftLeg 4.712452 -0.000000 -0.000000
LeftFoot -9.770053 -1.028541 -3.759021
LeftToeBase 6.085650 -0.000000 -0.000000
Spine -47.327337 -2.277583 0.986386
RightShoulder -15.923693 9.026198 -29.829050
RightArm -2.283407 -27.874403 76.512855
RightForeArm 16.955781 -0.000000 2.263608
RightHand 14.826415 0.000000 3.900085
RightHandThumb1 -24.326973 -0.000000 -32.862282
LeftShoulder -8.387175 7.920974 28.238559
LeftArm 20.307076 12.869833 -68.163366
LeftForeArm 11.405655 -0.000000 6.737306
LeftHand -17.523883 -0.000000 2.050169
LeftHandThumb1 -26.253704 0.000000 33.147579
Head 1.387516 -1.205588 15.119778
1051
root -1.648246 32.813931 -2.987560 46.078467 3.399746 0.422584
RightUpLeg -38.376906 -5.218056 6.071881
RightLeg -1.520264 -0.000000 0.000000
RightFoot -6.795024 5.287053 19.741790
RightToeBase 17.759537 -0.000000 -0.000000
LeftUpLeg -41.435746 4.752307 -4.164909
LeftLeg 4.080028 -0.000000 -0.000000
LeftFoot -9.497522 -0.631050 -4.131466
LeftToeBase 6.216503 -0.000000 -0.000000
Spine -47.402799 -2.196748 0.871035
RightShoulder -15.944070 9.211079 -30.170125
RightArm -2.242096 -27.405203 75.445388
RightForeArm 16.617717 0.000000 2.083679
RightHand 15.072982 0.000000 3.348181
RightHandThumb1 -24.326973 -0.000000 -32.862282
LeftShoulder -8.532037 7.872482 28.561383
LeftArm 20.433591 11.223468 -67.267990
LeftForeArm 11.229621 -0.000000 6.769326
LeftHand -17.657406 -0.000000 2.298157
LeftHandThumb1 -26.253704 0.000000 33.147579
Head 1.420000 -1.238006 15.155710
1052
root -1.622143 32.823605 -3.022680 46.120318 3.258394 0.260178
RightUpLeg -38.615159 -5.230734 6.275699
RightLeg -1.327840 -0.000000 0.000000
RightFoot -6.692367 5.338308 19.540375
RightToeBase 17.745622 -0.000000 -0.000000
LeftUpLeg -41.310826 4.659117 -3.937937
LeftLeg 3.671043 -0.000000 -0.000000
LeftFoot -9.364911 -0.452593 -4.417880
LeftToeBase 6.360950 -0.000000 -0.000000
Spine -47.482541 -2.045176 0.770280
RightShoulder -15.970005 9.372602 -30.554442
RightArm -2.168233 -26.945699 74.364403
RightForeArm 16.087501 0.000000 1.930958
RightHand 14.978366 -0.000000 3.031726
RightHandThumb1 -24.326973 -0.000000 -32.862282
LeftShoulder -8.620875 7.762598 28.900757
LeftArm 20.450479 9.577593 -66.434885
LeftForeArm 11.348928 0.000000 6.838159
LeftHand -17.899332 0.000000 2.882794
LeftHandThumb1 -26.253704 0.000000 33.147579
Head 1.433903 -1.281660 15.163658
1053
root -1.599389 32.828638 -3.054802 46.161146 3.147583 0.096931
RightUpLeg -38.697113 -5.078821 6.360432
RightLeg -1.402331 -0.000000 0.000000
RightFoot -6.562369 5.115918 19.331390
RightToeBase 17.665721 -0.000000 -0.000000
LeftUpLeg -41.186331 4.648101 -3.795484
LeftLeg 3.250626 -0.000000 -0.000000
LeftFoot -9.359122 -0.288796 -4.746801
LeftToeBase 6.865261 -0.000000 -0.000000
Spine -47.558471 -1.924730 0.701310
RightShoulder -16.039807 9.554641 -30.952557
RightArm -2.038127 -26.651340 73.260190
RightForeArm 15.438340 -0.000000 1.730425
RightHand 14.997997 0.000000 2.611614
RightHandThumb1 -24.326973 -0.000000 -32.862282
LeftShoulder -8.777057 7.722677 29.250586
LeftArm 20.560667 7.953760 -65.594855
LeftForeArm 11.431133 -0.000000 6.959382
LeftHand -18.245513 -0.000000 3.660785
LeftHandThumb1 -26.253704 0.000000 33.147579
Head 1.463449 -1.313054 15.122378
